<?xml version="1.0" encoding="UTF-8" standalone="no"?>
<!-- Created with Inkscape (http://www.inkscape.org/) -->

<svg
   width="800"
   height="400"
   viewBox="0 0 211.66667 105.83333"
   version="1.1"
   id="svg1"
   inkscape:version="1.3 (0e150ed6c4, 2023-07-21)"
   sodipodi:docname="D+D_SolveLabs.svg"
   inkscape:export-filename="..\..\..\..\..\..\Astro_Tutorial\virtual-venus\public\images\icons\D+D_SolveLabs.svg"
   inkscape:export-xdpi="96"
   inkscape:export-ydpi="96"
   xmlns:inkscape="http://www.inkscape.org/namespaces/inkscape"
   xmlns:sodipodi="http://sodipodi.sourceforge.net/DTD/sodipodi-0.dtd"
   xmlns="http://www.w3.org/2000/svg"
   xmlns:svg="http://www.w3.org/2000/svg">
  <sodipodi:namedview
     id="namedview1"
     pagecolor="#ffffff"
     bordercolor="#eeeeee"
     borderopacity="1"
     inkscape:showpageshadow="0"
     inkscape:pageopacity="0"
     inkscape:pagecheckerboard="0"
     inkscape:deskcolor="#d1d1d1"
     inkscape:document-units="mm"
     inkscape:zoom="1.4627806"
     inkscape:cx="484.00969"
     inkscape:cy="311.39324"
     inkscape:window-width="1920"
     inkscape:window-height="1017"
     inkscape:window-x="1912"
     inkscape:window-y="55"
     inkscape:window-maximized="1"
     inkscape:current-layer="g12"
     showgrid="false" />
  <defs
     id="defs1">
    <rect
       x="339.01465"
       y="273.86057"
       width="134.71643"
       height="159.26498"
       id="rect1" />
    <filter
       style="color-interpolation-filters:sRGB;"
       inkscape:label="Black Light"
       id="filter1"
       x="-0.026231773"
       y="-0.11303098"
       width="1.0524635"
       height="1.2260619"
       inkscape:menu="Color"
       inkscape:menu-tooltip="Light areas turn to black">
      <feGaussianBlur
         stdDeviation="0.5 1.01"
         result="fbSourceGraphic"
         id="feGaussianBlur1" />
      <feColorMatrix
         result="fbSourceGraphicAlpha"
         in="fbSourceGraphic"
         values="0 0 0 -1 0 0 0 0 -1 0 0 0 0 -1 0 0 0 0 1 0"
         id="feColorMatrix2" />
      <feGaussianBlur
         id="feGaussianBlur2"
         stdDeviation="0.3 0.3"
         result="fbSourceGraphic"
         in="fbSourceGraphic" />
      <feColorMatrix
         result="fbSourceGraphicAlpha"
         in="fbSourceGraphic"
         values="0 0 0 -1 0 0 0 0 -1 0 0 0 0 -1 0 0 0 0 1 0"
         id="feColorMatrix3" />
      <feColorMatrix
         id="feColorMatrix4"
         type="luminanceToAlpha"
         result="result2"
         in="fbSourceGraphic" />
      <feComposite
         id="feComposite4"
         in2="fbSourceGraphic"
         operator="arithmetic"
         in="result2"
         k3="2"
         result="result4" />
      <feBlend
         id="feBlend4"
         in="result4"
         mode="multiply"
         result="result3"
         in2="result2" />
      <feComposite
         id="feComposite5"
         in2="fbSourceGraphic"
         operator="in"
         in="result3" />
    </filter>
    <filter
       style="color-interpolation-filters:sRGB;"
       inkscape:label="Blur"
       id="filter24"
       x="-0.022952801"
       y="-0.060398241"
       width="1.0459056"
       height="1.1207965">
      <feGaussianBlur
         stdDeviation="0.7 0.7"
         result="blur"
         id="feGaussianBlur24" />
    </filter>
  </defs>
  <g
     inkscape:label="Layer 1"
     inkscape:groupmode="layer"
     id="layer1">
    <g
       id="g12"
       transform="matrix(2.5181639,0,0,2.5188526,-164.41213,-154.424)"
       style="stroke-width:0.39706">
      <g
         id="g2"
         transform="matrix(0.39212426,0,0,0.39212426,65.396212,57.102628)"
         style="fill:#808080;stroke-width:1.01259;filter:url(#filter24)">
        <path
           d="m 73.102596,67.685657 v 20.08301 c 5.228194,-0.0162 10.458478,0.0327 15.685352,-0.0248 2.561338,-0.21345 4.557498,-2.72336 4.305168,-5.25963 v -2.67115 h -3.990458 c -0.0356,1.32946 0.0738,2.14685 -0.0594,3.4649 -0.39646,0.76869 -1.381217,0.3916 -2.075414,0.48214 H 77.09305 v -12.06593 c 3.774869,0.0114 7.551872,-0.0228 11.325408,0.017 0.96971,0.23738 0.61863,1.379 0.6842,2.10857 v 0.92587 h 3.990458 c -0.0623,-1.9024 0.32933,-3.48731 -0.97148,-5.09046 -1.04743,-1.48533 -2.908628,-2.11586 -4.669134,-1.96957 z"
           style="opacity:1;fill:#808080;fill-opacity:1;stroke:#000000;stroke-width:0;stroke-linecap:square;stroke-dasharray:none;stroke-opacity:1;paint-order:fill markers stroke"
           id="path12-2"
           sodipodi:nodetypes="ccccccccccccccccc" />
        <path
           d="m 80.920206,75.274857 v 7.9561 h 3.990454 v -3.94704 c 3.774888,0.011 7.551776,-0.022 11.325409,0.0165 0.9696,0.23773 0.61868,1.37895 0.6842,2.10856 -0.0103,3.10133 0.0207,6.20455 -0.0155,9.30469 -0.21669,0.90498 -1.28501,0.57308 -1.96239,0.63561 H 84.91066 v -3.05149 h -3.990454 v 7.06055 c 5.228189,-0.0165 10.45853,0.0332 15.685353,-0.0253 2.56137,-0.21276 4.557361,-2.72311 4.305171,-5.25911 -0.0161,-3.47155 0.0327,-6.94516 -0.0253,-10.41538 -0.20888,-2.58928 -2.728581,-4.63919 -5.301461,-4.38371 -4.887921,0 -9.775843,0 -14.663763,0 z"
           style="opacity:1;fill:#808080;fill-opacity:1;stroke:#000000;stroke-width:0;stroke-linecap:square;stroke-dasharray:none;stroke-opacity:1;paint-order:fill markers stroke"
           id="path11-2"
           sodipodi:nodetypes="ccccccccccccccccc" />
        <path
           id="rect11-8"
           style="opacity:1;fill:#808080;fill-opacity:1;stroke:none;stroke-width:0.202518;stroke-dasharray:none;stroke-opacity:1;paint-order:fill markers stroke"
           d="m 75.361204,88.560487 v 2.24894 h -2.26364 v 2.42203 h 2.26364 v 2.248939 h 2.437851 v -2.248939 h 2.263643 v -2.42203 h -2.263643 v -2.24894 z" />
        <path
           style="font-size:8.96474px;line-height:5.55;font-family:satoshi;-inkscape-font-specification:satoshi;fill:#808080;stroke-width:1.11385;paint-order:fill markers stroke"
           d="m 105.18577,90.495567 c 0,0.878545 0.52892,1.452288 1.53297,1.694336 l 1.08473,0.268942 c 0.69029,0.161366 1.01302,0.537885 1.01302,1.111628 0,0.735109 -0.60064,1.192311 -1.54194,1.192311 -0.87854,0 -1.47021,-0.439273 -1.50607,-1.111628 h -0.66339 c 0.0807,1.048874 0.92336,1.7033 2.16946,1.7033 1.32679,0 2.1874,-0.708214 2.1874,-1.819842 0,-0.869579 -0.51995,-1.443323 -1.52401,-1.685371 l -1.10266,-0.268942 c -0.67235,-0.17033 -1.00405,-0.52892 -1.00405,-1.093698 0,-0.726144 0.59167,-1.192311 1.49711,-1.192311 0.80683,0 1.29989,0.412378 1.37161,1.138522 h 0.65442 c -0.0986,-1.075768 -0.86061,-1.72123 -2.01706,-1.72123 -1.29093,0 -2.15154,0.708215 -2.15154,1.783983 z m 4.99336,2.581846 c 0,1.317816 0.93233,2.277043 2.20532,2.277043 1.273,0 2.20533,-0.959227 2.20533,-2.277043 0,-1.326782 -0.93233,-2.286009 -2.20533,-2.286009 -1.27299,0 -2.20532,0.959227 -2.20532,2.286009 z m 0.62753,-0.009 c 0,-1.004051 0.64546,-1.72123 1.57779,-1.72123 0.92337,0 1.5778,0.717179 1.5778,1.72123 0,1.02198 -0.65443,1.730195 -1.5778,1.730195 -0.93233,0 -1.57779,-0.708215 -1.57779,-1.730195 z m 5.41471,2.178432 v -6.535296 h -0.61857 v 6.535296 z m 2.52805,0 h 0.61857 l 1.80191,-4.338934 h -0.63649 l -1.13853,2.796998 c -0.1255,0.313766 -0.24204,0.600638 -0.32273,0.896474 -0.0807,-0.286871 -0.19722,-0.582708 -0.31376,-0.896474 l -1.12059,-2.796998 h -0.66339 z m 4.77821,0.107576 c 1.02198,0 1.69434,-0.49306 1.92742,-1.407464 h -0.59167 c -0.16137,0.573744 -0.61857,0.878545 -1.32678,0.878545 -0.93234,0 -1.48815,-0.609602 -1.53297,-1.667442 h 3.45142 v -0.304801 c 0,-1.228169 -0.79786,-2.06189 -1.97224,-2.06189 -1.23714,0 -2.07982,0.932333 -2.07982,2.286009 0,1.36264 0.85165,2.277043 2.12464,2.277043 z m -0.0448,-4.034132 c 0.81579,0 1.35367,0.555813 1.35367,1.389534 h -2.81492 c 0.10757,-0.85165 0.64546,-1.389534 1.46125,-1.389534 z m 6.22153,-2.492198 h -0.64546 v 6.418754 h 3.59486 v -0.591673 h -2.9494 z m 5.02923,6.52633 c 0.73511,0 1.32678,-0.32273 1.59572,-0.869579 l 0.0807,0.762003 h 0.51996 v -2.805964 c 0,-1.147487 -0.73511,-1.649512 -1.73916,-1.649512 -1.06681,0 -1.78398,0.564779 -1.78398,1.443323 h 0.56477 c 0,-0.582708 0.44824,-0.923368 1.20128,-0.923368 0.6365,0 1.14749,0.268942 1.14749,1.120592 v 0.143436 l -1.43436,0.116542 c -1.01302,0.08068 -1.62262,0.582708 -1.62262,1.38057 0,0.762003 0.54685,1.281957 1.47022,1.281957 z m 0.14343,-0.502025 c -0.59167,0 -0.98612,-0.268942 -0.98612,-0.797862 0,-0.484096 0.3317,-0.842685 1.14749,-0.914403 l 1.28196,-0.09861 v 0.233083 c 0,0.941298 -0.52892,1.577794 -1.44333,1.577794 z m 3.82794,0.394449 0.0627,-0.88751 c 0.3048,0.672356 0.90544,0.995086 1.63159,0.995086 1.26402,0 2.01706,-0.968191 2.01706,-2.268079 0,-1.308852 -0.73511,-2.294973 -1.99913,-2.294973 -0.73511,0 -1.32679,0.322731 -1.63159,0.959227 v -3.039047 h -0.61856 v 6.535296 z m 0.0897,-2.178432 c 0,-0.995086 0.55581,-1.72123 1.50607,-1.72123 0.9413,0 1.48815,0.726144 1.48815,1.72123 0,1.004051 -0.54685,1.72123 -1.48815,1.72123 -0.95026,0 -1.50607,-0.717179 -1.50607,-1.72123 z m 4.24032,0.959227 c 0,0.806827 0.6096,1.326781 1.58676,1.326781 0.98612,0 1.64951,-0.51099 1.64951,-1.290922 0,-0.627532 -0.34066,-0.977157 -1.0937,-1.165416 l -0.74407,-0.18826 c -0.47513,-0.116541 -0.70822,-0.349625 -0.70822,-0.68132 0,-0.466166 0.34066,-0.726144 0.95026,-0.726144 0.58271,0 0.93234,0.295836 0.95027,0.797862 h 0.60063 c -0.0269,-0.806827 -0.61856,-1.308852 -1.53297,-1.308852 -0.93233,0 -1.56883,0.484096 -1.56883,1.246099 0,0.591673 0.36756,0.986121 1.1206,1.174381 l 0.74407,0.188259 c 0.51099,0.125507 0.69029,0.331696 0.69029,0.690285 0,0.466167 -0.39445,0.753038 -1.06681,0.753038 -0.6096,0 -0.98612,-0.313766 -0.98612,-0.815791 z"
           id="text1-3"
           transform="scale(1.0001367,0.9998633)"
           aria-label="Solve Labs" />
      </g>
      <g
         id="g1"
         transform="matrix(0.39212426,0,0,0.39212426,65.258427,56.974286)"
         style="stroke-width:1.01259">
        <path
           d="m 73.102596,67.685657 v 20.08301 c 5.228194,-0.0162 10.458478,0.0327 15.685352,-0.0248 2.561338,-0.21345 4.557498,-2.72336 4.305168,-5.25963 v -2.67115 h -3.990458 c -0.0356,1.32946 0.0738,2.14685 -0.0594,3.4649 -0.39646,0.76869 -1.381217,0.3916 -2.075414,0.48214 H 77.09305 v -12.06593 c 3.774869,0.0114 7.551872,-0.0228 11.325408,0.017 0.96971,0.23738 0.61863,1.379 0.6842,2.10857 v 0.92587 h 3.990458 c -0.0623,-1.9024 0.32933,-3.48731 -0.97148,-5.09046 -1.04743,-1.48533 -2.908628,-2.11586 -4.669134,-1.96957 z"
           style="opacity:1;fill:#808080;fill-opacity:1;stroke:#000000;stroke-width:0;stroke-linecap:square;stroke-dasharray:none;stroke-opacity:1;paint-order:fill markers stroke"
           id="path12"
           sodipodi:nodetypes="ccccccccccccccccc" />
        <path
           d="m 80.920206,75.274857 v 7.9561 h 3.990454 v -3.94704 c 3.774888,0.011 7.551776,-0.022 11.325409,0.0165 0.9696,0.23773 0.61868,1.37895 0.6842,2.10856 -0.0103,3.10133 0.0207,6.20455 -0.0155,9.30469 -0.21669,0.90498 -1.28501,0.57308 -1.96239,0.63561 H 84.91066 v -3.05149 h -3.990454 v 7.06055 c 5.228189,-0.0165 10.45853,0.0332 15.685353,-0.0253 2.56137,-0.21276 4.557361,-2.72311 4.305171,-5.25911 -0.0161,-3.47155 0.0327,-6.94516 -0.0253,-10.41538 -0.20888,-2.58928 -2.728581,-4.63919 -5.301461,-4.38371 -4.887921,0 -9.775843,0 -14.663763,0 z"
           style="opacity:1;fill:#ff7200;fill-opacity:1;stroke:#000000;stroke-width:0;stroke-linecap:square;stroke-dasharray:none;stroke-opacity:1;paint-order:fill markers stroke"
           id="path11"
           sodipodi:nodetypes="ccccccccccccccccc" />
        <path
           id="rect11"
           style="opacity:1;fill:#000000;fill-opacity:1;stroke:none;stroke-width:0.202518;stroke-dasharray:none;stroke-opacity:1;paint-order:fill markers stroke"
           d="m 75.361204,88.560487 v 2.24894 h -2.26364 v 2.42203 h 2.26364 v 2.248939 h 2.437851 v -2.248939 h 2.263643 v -2.42203 h -2.263643 v -2.24894 z" />
        <path
           style="font-size:8.96474px;line-height:5.55;font-family:satoshi;-inkscape-font-specification:satoshi;stroke-width:1.11385;paint-order:fill markers stroke"
           d="m 105.18577,90.495567 c 0,0.878545 0.52892,1.452288 1.53297,1.694336 l 1.08473,0.268942 c 0.69029,0.161366 1.01302,0.537885 1.01302,1.111628 0,0.735109 -0.60064,1.192311 -1.54194,1.192311 -0.87854,0 -1.47021,-0.439273 -1.50607,-1.111628 h -0.66339 c 0.0807,1.048874 0.92336,1.7033 2.16946,1.7033 1.32679,0 2.1874,-0.708214 2.1874,-1.819842 0,-0.869579 -0.51995,-1.443323 -1.52401,-1.685371 l -1.10266,-0.268942 c -0.67235,-0.17033 -1.00405,-0.52892 -1.00405,-1.093698 0,-0.726144 0.59167,-1.192311 1.49711,-1.192311 0.80683,0 1.29989,0.412378 1.37161,1.138522 h 0.65442 c -0.0986,-1.075768 -0.86061,-1.72123 -2.01706,-1.72123 -1.29093,0 -2.15154,0.708215 -2.15154,1.783983 z m 4.99336,2.581846 c 0,1.317816 0.93233,2.277043 2.20532,2.277043 1.273,0 2.20533,-0.959227 2.20533,-2.277043 0,-1.326782 -0.93233,-2.286009 -2.20533,-2.286009 -1.27299,0 -2.20532,0.959227 -2.20532,2.286009 z m 0.62753,-0.009 c 0,-1.004051 0.64546,-1.72123 1.57779,-1.72123 0.92337,0 1.5778,0.717179 1.5778,1.72123 0,1.02198 -0.65443,1.730195 -1.5778,1.730195 -0.93233,0 -1.57779,-0.708215 -1.57779,-1.730195 z m 5.41471,2.178432 v -6.535296 h -0.61857 v 6.535296 z m 2.52805,0 h 0.61857 l 1.80191,-4.338934 h -0.63649 l -1.13853,2.796998 c -0.1255,0.313766 -0.24204,0.600638 -0.32273,0.896474 -0.0807,-0.286871 -0.19722,-0.582708 -0.31376,-0.896474 l -1.12059,-2.796998 h -0.66339 z m 4.77821,0.107576 c 1.02198,0 1.69434,-0.49306 1.92742,-1.407464 h -0.59167 c -0.16137,0.573744 -0.61857,0.878545 -1.32678,0.878545 -0.93234,0 -1.48815,-0.609602 -1.53297,-1.667442 h 3.45142 v -0.304801 c 0,-1.228169 -0.79786,-2.06189 -1.97224,-2.06189 -1.23714,0 -2.07982,0.932333 -2.07982,2.286009 0,1.36264 0.85165,2.277043 2.12464,2.277043 z m -0.0448,-4.034132 c 0.81579,0 1.35367,0.555813 1.35367,1.389534 h -2.81492 c 0.10757,-0.85165 0.64546,-1.389534 1.46125,-1.389534 z m 6.22153,-2.492198 h -0.64546 v 6.418754 h 3.59486 v -0.591673 h -2.9494 z m 5.02923,6.52633 c 0.73511,0 1.32678,-0.32273 1.59572,-0.869579 l 0.0807,0.762003 h 0.51996 v -2.805964 c 0,-1.147487 -0.73511,-1.649512 -1.73916,-1.649512 -1.06681,0 -1.78398,0.564779 -1.78398,1.443323 h 0.56477 c 0,-0.582708 0.44824,-0.923368 1.20128,-0.923368 0.6365,0 1.14749,0.268942 1.14749,1.120592 v 0.143436 l -1.43436,0.116542 c -1.01302,0.08068 -1.62262,0.582708 -1.62262,1.38057 0,0.762003 0.54685,1.281957 1.47022,1.281957 z m 0.14343,-0.502025 c -0.59167,0 -0.98612,-0.268942 -0.98612,-0.797862 0,-0.484096 0.3317,-0.842685 1.14749,-0.914403 l 1.28196,-0.09861 v 0.233083 c 0,0.941298 -0.52892,1.577794 -1.44333,1.577794 z m 3.82794,0.394449 0.0627,-0.88751 c 0.3048,0.672356 0.90544,0.995086 1.63159,0.995086 1.26402,0 2.01706,-0.968191 2.01706,-2.268079 0,-1.308852 -0.73511,-2.294973 -1.99913,-2.294973 -0.73511,0 -1.32679,0.322731 -1.63159,0.959227 v -3.039047 h -0.61856 v 6.535296 z m 0.0897,-2.178432 c 0,-0.995086 0.55581,-1.72123 1.50607,-1.72123 0.9413,0 1.48815,0.726144 1.48815,1.72123 0,1.004051 -0.54685,1.72123 -1.48815,1.72123 -0.95026,0 -1.50607,-0.717179 -1.50607,-1.72123 z m 4.24032,0.959227 c 0,0.806827 0.6096,1.326781 1.58676,1.326781 0.98612,0 1.64951,-0.51099 1.64951,-1.290922 0,-0.627532 -0.34066,-0.977157 -1.0937,-1.165416 l -0.74407,-0.18826 c -0.47513,-0.116541 -0.70822,-0.349625 -0.70822,-0.68132 0,-0.466166 0.34066,-0.726144 0.95026,-0.726144 0.58271,0 0.93234,0.295836 0.95027,0.797862 h 0.60063 c -0.0269,-0.806827 -0.61856,-1.308852 -1.53297,-1.308852 -0.93233,0 -1.56883,0.484096 -1.56883,1.246099 0,0.591673 0.36756,0.986121 1.1206,1.174381 l 0.74407,0.188259 c 0.51099,0.125507 0.69029,0.331696 0.69029,0.690285 0,0.466167 -0.39445,0.753038 -1.06681,0.753038 -0.6096,0 -0.98612,-0.313766 -0.98612,-0.815791 z"
           id="text1"
           transform="scale(1.0001367,0.9998633)"
           aria-label="Solve Labs" />
      </g>
    </g>
  </g>
</svg>
