<?xml version="1.0" encoding="UTF-8" standalone="no"?>
<!-- Created with Inkscape (http://www.inkscape.org/) -->

<svg
   width="800mm"
   height="800mm"
   viewBox="0 0 800 800"
   version="1.1"
   id="svg1"
   xml:space="preserve"
   inkscape:version="1.3 (0e150ed6c4, 2023-07-21)"
   sodipodi:docname="github.svg"
   xmlns:inkscape="http://www.inkscape.org/namespaces/inkscape"
   xmlns:sodipodi="http://sodipodi.sourceforge.net/DTD/sodipodi-0.dtd"
   xmlns="http://www.w3.org/2000/svg"
   xmlns:svg="http://www.w3.org/2000/svg"><sodipodi:namedview
     id="namedview1"
     pagecolor="#505050"
     bordercolor="#eeeeee"
     borderopacity="1"
     inkscape:showpageshadow="0"
     inkscape:pageopacity="0"
     inkscape:pagecheckerboard="0"
     inkscape:deskcolor="#d1d1d1"
     inkscape:document-units="mm"
     inkscape:zoom="0.18284757"
     inkscape:cx="1115.6834"
     inkscape:cy="1577.8169"
     inkscape:window-width="1920"
     inkscape:window-height="1017"
     inkscape:window-x="1912"
     inkscape:window-y="55"
     inkscape:window-maximized="1"
     inkscape:current-layer="layer1" /><defs
     id="defs1" /><g
     inkscape:label="Layer 1"
     inkscape:groupmode="layer"
     id="layer1"><path
       d="M 399.99997,0 C 620.91998,0 800,183.6 800,410.12003 c 0,181.15998 -114.48,334.83999 -273.32001,389.11998 -20.28,4.04001 -27.48,-8.76 -27.48,-19.68 0,-13.51998 0.48,-57.67998 0.48,-112.56 0,-38.23998 -12.80002,-63.19998 -27.15999,-75.91998 C 561.59999,580.92002 655.19999,546.24002 655.19999,388.72 655.19999,343.92002 639.68,307.36 614,278.64002 c 4.15998,-10.36003 17.88,-52.08 -3.92001,-108.56002 0,0 -33.51999,-11 -109.88002,42.04 C 468.23999,203.04 434,198.48 399.99997,198.32 366,198.32 331.8,203.04 299.88,212.12 223.44,159.08 189.84,170.08 189.84,170.08 c -21.72001,56.48002 -8.00001,98.19999 -3.88,108.56002 -25.56,28.71998 -41.20001,65.28 -41.20001,110.07998 0,157.12003 93.40001,192.32002 182.24001,202.68001 -11.44,10.24002 -21.8,28.32 -25.40001,54.84 -22.8,10.48002 -80.71999,28.60002 -116.4,-34.08 0,0 -21.16,-39.39999 -61.32,-42.27999 0,0 -38.999997,-0.51999 -2.71999,24.92001 0,0 26.19999,12.6 44.4,60 0,0 23.47999,73.2 134.76,48.39999 0.20001,34.28001 0.55999,66.6 0.55999,76.35999 0,10.84002 -7.35999,23.52 -27.31999,19.72002 C 114.59999,745.08002 -7.08e-6,591.32003 -7.08e-6,410.12003 -7.08e-6,183.6 179.12,0 399.99997,0"
       id="github-[#142]"
       style="fill:#ffffff;fill-rule:evenodd;stroke:none;stroke-width:10.5833;fill-opacity:1" /></g></svg>
