<?xml version="1.0" encoding="UTF-8" standalone="no"?>
<!-- Created with Inkscape (http://www.inkscape.org/) -->

<svg
   width="800mm"
   height="800mm"
   viewBox="0 0 800 800"
   version="1.1"
   id="svg1"
   xml:space="preserve"
   inkscape:version="1.3 (0e150ed6c4, 2023-07-21)"
   sodipodi:docname="instagram.svg"
   xmlns:inkscape="http://www.inkscape.org/namespaces/inkscape"
   xmlns:sodipodi="http://sodipodi.sourceforge.net/DTD/sodipodi-0.dtd"
   xmlns="http://www.w3.org/2000/svg"
   xmlns:svg="http://www.w3.org/2000/svg"><sodipodi:namedview
     id="namedview1"
     pagecolor="#505050"
     bordercolor="#eeeeee"
     borderopacity="1"
     inkscape:showpageshadow="0"
     inkscape:pageopacity="0"
     inkscape:pagecheckerboard="0"
     inkscape:deskcolor="#d1d1d1"
     inkscape:document-units="mm"
     inkscape:zoom="0.18284757"
     inkscape:cx="875.04579"
     inkscape:cy="1654.3835"
     inkscape:window-width="1920"
     inkscape:window-height="1017"
     inkscape:window-x="-8"
     inkscape:window-y="-8"
     inkscape:window-maximized="1"
     inkscape:current-layer="layer1" /><defs
     id="defs1" /><g
     inkscape:label="Layer 1"
     inkscape:groupmode="layer"
     id="layer1"><g
       id="XMLID_13_"
       transform="matrix(1.451816,0,0,1.451816,0.52232976,-0.74380898)"
       style="fill:#ffffff;stroke-width:0.264583">&#10;	&#10;		<linearGradient
   id="XMLID_2_"
   gradientUnits="userSpaceOnUse"
   x1="275.517"
   y1="4.5714002"
   x2="275.517"
   y2="549.72021"
   gradientTransform="matrix(1,0,0,-1,0,554)">&#10;		<stop
   offset="0"
   style="stop-color:#E09B3D"
   id="stop1" />&#10;		<stop
   offset="0.3"
   style="stop-color:#C74C4D"
   id="stop2" />&#10;		<stop
   offset="0.6"
   style="stop-color:#C21975"
   id="stop3" />&#10;		<stop
   offset="1"
   style="stop-color:#7024C4"
   id="stop4" />&#10;	</linearGradient>&#10;	<path
   id="XMLID_17_"
   style="fill:#ffffff;stroke-width:0.264583"
   d="M 386.878,0 H 164.156 C 73.64,0 0,73.64 0,164.156 v 222.722 c 0,90.516 73.64,164.156 164.156,164.156 h 222.722 c 90.516,0 164.156,-73.64 164.156,-164.156 V 164.156 C 551.033,73.64 477.393,0 386.878,0 Z M 495.6,386.878 C 495.6,446.923 446.923,495.6 386.878,495.6 H 164.156 C 104.111,495.6 55.434,446.923 55.434,386.878 V 164.156 c 0,-60.046 48.677,-108.722 108.722,-108.722 h 222.722 c 60.045,0 108.722,48.676 108.722,108.722 z" />&#10;	&#10;		<linearGradient
   id="XMLID_3_"
   gradientUnits="userSpaceOnUse"
   x1="275.517"
   y1="4.5714002"
   x2="275.517"
   y2="549.72021"
   gradientTransform="matrix(1,0,0,-1,0,554)">&#10;		<stop
   offset="0"
   style="stop-color:#E09B3D"
   id="stop5" />&#10;		<stop
   offset="0.3"
   style="stop-color:#C74C4D"
   id="stop6" />&#10;		<stop
   offset="0.6"
   style="stop-color:#C21975"
   id="stop7" />&#10;		<stop
   offset="1"
   style="stop-color:#7024C4"
   id="stop8" />&#10;	</linearGradient>&#10;	<path
   id="XMLID_81_"
   style="fill:#ffffff;stroke-width:0.264583"
   d="M 275.517,133 C 196.933,133 133,196.933 133,275.516 c 0,78.583 63.933,142.517 142.517,142.517 78.584,0 142.517,-63.933 142.517,-142.517 C 418.034,196.932 354.101,133 275.517,133 Z m 0,229.6 c -48.095,0 -87.083,-38.988 -87.083,-87.083 0,-48.095 38.989,-87.083 87.083,-87.083 48.095,0 87.083,38.988 87.083,87.083 0,48.094 -38.989,87.083 -87.083,87.083 z" />&#10;	&#10;		<linearGradient
   id="XMLID_4_"
   gradientUnits="userSpaceOnUse"
   x1="418.306"
   y1="4.5714002"
   x2="418.306"
   y2="549.72021"
   gradientTransform="matrix(1,0,0,-1,0,554)">&#10;		<stop
   offset="0"
   style="stop-color:#E09B3D"
   id="stop9" />&#10;		<stop
   offset="0.3"
   style="stop-color:#C74C4D"
   id="stop10" />&#10;		<stop
   offset="0.6"
   style="stop-color:#C21975"
   id="stop11" />&#10;		<stop
   offset="1"
   style="stop-color:#7024C4"
   id="stop12" />&#10;	</linearGradient>&#10;	<circle
   id="XMLID_83_"
   style="fill:#ffffff;stroke-width:0.264583"
   cx="418.306"
   cy="134.07201"
   r="34.148998" />&#10;</g></g></svg>
