<?xml version="1.0" encoding="UTF-8" standalone="no"?>
<!-- Uploaded to: SVG Repo, www.svgrepo.com, Generator: SVG Repo Mixer Tools -->

<svg
   fill="#000000"
   height="800px"
   width="800px"
   version="1.1"
   id="Layer_1"
   viewBox="0 0 455 455"
   xml:space="preserve"
   sodipodi:docname="linkedin.svg"
   inkscape:version="1.3 (0e150ed6c4, 2023-07-21)"
   xmlns:inkscape="http://www.inkscape.org/namespaces/inkscape"
   xmlns:sodipodi="http://sodipodi.sourceforge.net/DTD/sodipodi-0.dtd"
   xmlns="http://www.w3.org/2000/svg"
   xmlns:svg="http://www.w3.org/2000/svg"><defs
   id="defs2"><inkscape:path-effect
   effect="fillet_chamfer"
   id="path-effect2"
   is_visible="true"
   lpeversion="1"
   nodesatellites_param="F,0,1,1,0,57.354839,0,1 @ F,0,1,1,0,57.354839,0,1 @ F,0,1,1,0,57.354839,0,1 @ F,0,0,1,0,57.354839,0,1 | F,0,0,1,0,0,0,1 @ F,0,0,1,0,0,0,1 @ F,0,0,1,0,0,0,1 @ F,0,0,1,0,0,0,1 | F,0,0,1,0,0,0,1 @ F,0,0,1,0,0,0,1 @ F,0,0,1,0,0,0,1 @ F,0,0,1,0,0,0,1 @ F,0,0,1,0,0,0,1 | F,0,0,1,0,0,0,1 @ F,0,0,1,0,0,0,1 @ F,0,0,1,0,0,0,1 @ F,0,0,1,0,0,0,1 @ F,0,0,1,0,0,0,1 @ F,0,0,1,0,0,0,1 @ F,0,0,1,0,0,0,1 @ F,0,0,1,0,0,0,1 @ F,0,0,1,0,0,0,1 @ F,0,0,1,0,0,0,1 @ F,0,0,1,0,0,0,1 @ F,0,0,1,0,0,0,1 @ F,0,0,1,0,0,0,1"
   radius="0"
   unit="px"
   method="auto"
   mode="F"
   chamfer_steps="1"
   flexible="false"
   use_knot_distance="true"
   apply_no_radius="true"
   apply_with_radius="true"
   only_selected="false"
   hide_knots="false" />&#10;	&#10;	&#10;</defs><sodipodi:namedview
   id="namedview2"
   pagecolor="#505050"
   bordercolor="#eeeeee"
   borderopacity="1"
   inkscape:showpageshadow="0"
   inkscape:pageopacity="0"
   inkscape:pagecheckerboard="0"
   inkscape:deskcolor="#d1d1d1"
   inkscape:zoom="1.0075"
   inkscape:cx="400"
   inkscape:cy="399.50372"
   inkscape:window-width="1920"
   inkscape:window-height="1017"
   inkscape:window-x="-8"
   inkscape:window-y="-8"
   inkscape:window-maximized="1"
   inkscape:current-layer="Layer_1" />&#10;<path
   style="clip-rule:evenodd;fill-rule:evenodd"
   d="m 246.4,204.35 v -0.665 c -0.136,0.223 -0.324,0.446 -0.442,0.665 z"
   id="path1"
   inkscape:label="path1" /><path
   style="clip-rule:evenodd;fill-rule:evenodd;fill:#ffffff;fill-opacity:1;stroke:none;stroke-opacity:1"
   d="M 0,57.354839 V 397.64516 A 57.354839,57.354839 45 0 0 57.354839,455 H 397.64516 A 57.354839,57.354839 135 0 0 455,397.64516 V 57.354839 A 57.354839,57.354839 45 0 0 397.64516,0 H 57.354839 A 57.354839,57.354839 135 0 0 0,57.354839 Z M 141.522,378.002 H 74.016 V 174.906 h 67.506 z M 107.769,147.186 h -0.446 C 84.678,147.186 70,131.585 70,112.085 70,92.157 85.107,76.998 108.211,76.998 c 23.109,0 37.31,15.159 37.752,35.087 0,19.5 -14.643,35.101 -38.194,35.101 z M 385,378.002 H 317.476 V 269.345 c 0,-27.291 -9.756,-45.92 -34.195,-45.92 -18.664,0 -29.755,12.543 -34.641,24.693 -1.776,4.34 -2.24,10.373 -2.24,16.459 v 113.426 h -67.537 c 0,0 0.905,-184.043 0,-203.096 H 246.4 v 28.779 c 8.973,-13.807 24.986,-33.547 60.856,-33.547 44.437,0 77.744,29.02 77.744,91.398 z"
   id="path2"
   inkscape:path-effect="#path-effect2"
   inkscape:original-d="M 0,0 V 455 H 455 V 0 Z M 141.522,378.002 H 74.016 V 174.906 h 67.506 z M 107.769,147.186 h -0.446 C 84.678,147.186 70,131.585 70,112.085 70,92.157 85.107,76.998 108.211,76.998 c 23.109,0 37.31,15.159 37.752,35.087 0,19.5 -14.643,35.101 -38.194,35.101 z M 385,378.002 H 317.476 V 269.345 c 0,-27.291 -9.756,-45.92 -34.195,-45.92 -18.664,0 -29.755,12.543 -34.641,24.693 -1.776,4.34 -2.24,10.373 -2.24,16.459 v 113.426 h -67.537 c 0,0 0.905,-184.043 0,-203.096 H 246.4 v 28.779 c 8.973,-13.807 24.986,-33.547 60.856,-33.547 44.437,0 77.744,29.02 77.744,91.398 z" />&#10;</svg>
