<?xml version="1.0" encoding="UTF-8" standalone="no"?>
<!-- Created with Inkscape (http://www.inkscape.org/) -->

<svg
   width="393.297"
   height="386.53101"
   viewBox="0 0 104.05983 102.26966"
   version="1.1"
   id="svg1"
   inkscape:version="1.3 (0e150ed6c4, 2023-07-21)"
   sodipodi:docname="DD_Logo.svg"
   inkscape:export-filename="DD_border.png"
   inkscape:export-xdpi="96"
   inkscape:export-ydpi="96"
   xmlns:inkscape="http://www.inkscape.org/namespaces/inkscape"
   xmlns:sodipodi="http://sodipodi.sourceforge.net/DTD/sodipodi-0.dtd"
   xmlns="http://www.w3.org/2000/svg"
   xmlns:svg="http://www.w3.org/2000/svg">
  <sodipodi:namedview
     id="namedview1"
     pagecolor="#1e88e5"
     bordercolor="#eeeeee"
     borderopacity="1"
     inkscape:showpageshadow="0"
     inkscape:pageopacity="0"
     inkscape:pagecheckerboard="0"
     inkscape:deskcolor="#d1d1d1"
     inkscape:document-units="mm"
     inkscape:zoom="1.0343421"
     inkscape:cx="402.67142"
     inkscape:cy="322.42717"
     inkscape:window-width="1920"
     inkscape:window-height="1017"
     inkscape:window-x="1912"
     inkscape:window-y="55"
     inkscape:window-maximized="1"
     inkscape:current-layer="g12"
     showgrid="false" />
  <defs
     id="defs1" />
  <g
     inkscape:label="Layer 1"
     inkscape:groupmode="layer"
     id="layer1">
    <g
       id="g12"
       transform="matrix(2.5181639,0,0,2.5188526,-164.41213,-154.424)"
       style="stroke-width:0.39706">
      <path
         d="m 73.102596,67.685657 v 20.08301 c 5.228194,-0.0162 10.458478,0.0327 15.685352,-0.0248 2.561338,-0.21345 4.557498,-2.72336 4.305168,-5.25963 v -2.67115 h -3.990458 c -0.0356,1.32946 0.0738,2.14685 -0.0594,3.4649 -0.39646,0.76869 -1.381217,0.3916 -2.075414,0.48214 H 77.09305 v -12.06593 c 3.774869,0.0114 7.551872,-0.0228 11.325408,0.017 0.96971,0.23738 0.61863,1.379 0.6842,2.10857 v 0.92587 h 3.990458 c -0.0623,-1.9024 0.32933,-3.48731 -0.97148,-5.09046 -1.04743,-1.48533 -2.908628,-2.11586 -4.669134,-1.96957 z"
         style="opacity:1;fill:#ffffff;fill-opacity:1;stroke:#000000;stroke-width:0;stroke-linecap:square;stroke-dasharray:none;stroke-opacity:1;paint-order:fill markers stroke"
         id="path12"
         sodipodi:nodetypes="ccccccccccccccccc" />
      <path
         d="m 80.920206,75.274857 v 7.9561 h 3.990454 v -3.94704 c 3.774888,0.011 7.551776,-0.022 11.325409,0.0165 0.9696,0.23773 0.61868,1.37895 0.6842,2.10856 -0.0103,3.10133 0.0207,6.20455 -0.0155,9.30469 -0.21669,0.90498 -1.28501,0.57308 -1.96239,0.63561 H 84.91066 v -3.05149 h -3.990454 v 7.06055 c 5.228189,-0.0165 10.45853,0.0332 15.685353,-0.0253 2.56137,-0.21276 4.557361,-2.72311 4.305171,-5.25911 -0.0161,-3.47155 0.0327,-6.94516 -0.0253,-10.41538 -0.20888,-2.58928 -2.728581,-4.63919 -5.301461,-4.38371 -4.887921,0 -9.775843,0 -14.663763,0 z"
         style="opacity:1;fill:#ffffff;fill-opacity:1;stroke:#000000;stroke-width:0;stroke-linecap:square;stroke-dasharray:none;stroke-opacity:1;paint-order:fill markers stroke"
         id="path11"
         sodipodi:nodetypes="ccccccccccccccccc" />
      <path
         id="rect11"
         style="opacity:1;fill:#ff7200;fill-opacity:1;stroke:none;stroke-width:0.0794121;stroke-dasharray:none;stroke-opacity:1;paint-order:fill markers stroke"
         d="m 75.361204,88.560487 v 2.24894 h -2.26364 v 2.42203 h 2.26364 v 2.248939 h 2.437851 v -2.248939 h 2.263643 v -2.42203 h -2.263643 v -2.24894 z" />
    </g>
  </g>
</svg>
