<?xml version="1.0" encoding="UTF-8" standalone="no"?>
<!-- Created with Inkscape (http://www.inkscape.org/) -->

<svg
   width="639"
   height="169.53101"
   viewBox="0 0 169.06981 44.855107"
   version="1.1"
   id="svg1"
   inkscape:version="1.3 (0e150ed6c4, 2023-07-21)"
   sodipodi:docname="DD_SolveLabs.svg"
   inkscape:export-filename="DD_border.png"
   inkscape:export-xdpi="96"
   inkscape:export-ydpi="96"
   xmlns:inkscape="http://www.inkscape.org/namespaces/inkscape"
   xmlns:sodipodi="http://sodipodi.sourceforge.net/DTD/sodipodi-0.dtd"
   xmlns="http://www.w3.org/2000/svg"
   xmlns:svg="http://www.w3.org/2000/svg">
  <sodipodi:namedview
     id="namedview1"
     pagecolor="#1e88e5"
     bordercolor="#eeeeee"
     borderopacity="1"
     inkscape:showpageshadow="0"
     inkscape:pageopacity="0"
     inkscape:pagecheckerboard="0"
     inkscape:deskcolor="#d1d1d1"
     inkscape:document-units="mm"
     inkscape:zoom="1.0343421"
     inkscape:cx="401.70462"
     inkscape:cy="306.9584"
     inkscape:window-width="1920"
     inkscape:window-height="1017"
     inkscape:window-x="1912"
     inkscape:window-y="55"
     inkscape:window-maximized="1"
     inkscape:current-layer="g12"
     showgrid="false" />
  <defs
     id="defs1" />
  <g
     inkscape:label="Layer 1"
     inkscape:groupmode="layer"
     id="layer1">
    <g
       id="g12"
       transform="matrix(2.5181639,0,0,2.5188526,-164.41213,-154.424)"
       style="stroke-width:0.39706">
      <path
         d="m 64.939181,68.870324 c 0,1.36855 0.823923,2.262297 2.387981,2.639347 l 1.689741,0.418944 c 1.075289,0.251366 1.578022,0.837888 1.578022,1.731635 0,1.145113 -0.935642,1.857318 -2.401946,1.857318 -1.36855,0 -2.290227,-0.684275 -2.346086,-1.731635 h -1.033395 c 0.125683,1.633882 1.438374,2.653312 3.379481,2.653312 2.066791,0 3.407412,-1.103219 3.407412,-2.834854 0,-1.354586 -0.809959,-2.248333 -2.374016,-2.625383 l -1.717671,-0.418944 c -1.04736,-0.265331 -1.564057,-0.823923 -1.564057,-1.703705 0,-1.131149 0.921676,-1.857319 2.332121,-1.857319 1.256832,0 2.024896,0.642381 2.136615,1.77353 h 1.01943 c -0.153613,-1.675776 -1.340621,-2.681242 -3.14208,-2.681242 -2.010931,0 -3.351552,1.10322 -3.351552,2.778996 z m 7.77839,4.021862 c 0,2.052825 1.452339,3.547059 3.43534,3.547059 1.983002,0 3.435341,-1.494234 3.435341,-3.547059 0,-2.06679 -1.452339,-3.561024 -3.435341,-3.561024 -1.983001,0 -3.43534,1.494234 -3.43534,3.561024 z m 0.977536,-0.01396 c 0,-1.564057 1.005465,-2.681241 2.457804,-2.681241 1.438375,0 2.457805,1.117184 2.457805,2.681241 0,1.591987 -1.01943,2.695206 -2.457805,2.695206 -1.452339,0 -2.457804,-1.103219 -2.457804,-2.695206 z m 8.434749,3.393446 V 66.091328 h -0.963571 v 10.180339 z m 3.938073,0 H 87.0315 l 2.806925,-6.758963 h -0.991501 l -1.773529,4.357018 c -0.195507,0.488768 -0.37705,0.935641 -0.502733,1.39648 -0.125683,-0.446874 -0.307226,-0.907712 -0.488768,-1.39648 l -1.7456,-4.357018 h -1.033395 z m 7.44324,0.167578 c 1.591987,0 2.639347,-0.768064 3.002432,-2.192474 h -0.921677 c -0.251366,0.893748 -0.963571,1.368551 -2.06679,1.368551 -1.45234,0 -2.318157,-0.949607 -2.387981,-2.597453 h 5.376448 v -0.474803 c 0,-1.913178 -1.242867,-3.211904 -3.072256,-3.211904 -1.927143,0 -3.239834,1.452339 -3.239834,3.561024 0,2.122649 1.326656,3.547059 3.309658,3.547059 z m -0.06982,-6.28416 c 1.270797,0 2.108685,0.865818 2.108685,2.164544 h -4.384948 c 0.167578,-1.326656 1.005466,-2.164544 2.276263,-2.164544 z m 9.691575,-3.882214 h -1.00546 v 9.998796 h 5.59988 v -0.921676 h -4.59442 z m 7.83426,10.166374 c 1.14512,0 2.06679,-0.502733 2.48574,-1.354586 l 0.12568,1.187008 h 0.80996 v -4.370982 c 0,-1.787494 -1.14511,-2.569523 -2.70917,-2.569523 -1.66181,0 -2.779,0.879782 -2.779,2.248333 h 0.87979 c 0,-0.907712 0.69824,-1.438375 1.87128,-1.438375 0.9915,0 1.78749,0.418944 1.78749,1.7456 v 0.223437 l -2.23436,0.181543 c -1.57803,0.125683 -2.52763,0.907712 -2.52763,2.150579 0,1.187008 0.85185,1.996966 2.29022,1.996966 z m 0.22344,-0.782029 c -0.92168,0 -1.53613,-0.418944 -1.53613,-1.242867 0,-0.754099 0.5167,-1.312691 1.7875,-1.424409 l 1.99696,-0.153613 v 0.363085 c 0,1.466303 -0.82392,2.457804 -2.24833,2.457804 z m 5.96296,0.614451 0.0977,-1.382515 c 0.47481,1.04736 1.41045,1.550093 2.5416,1.550093 1.96903,0 3.14208,-1.508198 3.14208,-3.533094 0,-2.038861 -1.14512,-3.574989 -3.11415,-3.574989 -1.14512,0 -2.06679,0.502733 -2.5416,1.494234 v -4.734068 h -0.96357 v 10.180339 z m 0.13965,-3.393446 c 0,-1.550093 0.86582,-2.681241 2.34608,-2.681241 1.46631,0 2.31816,1.131148 2.31816,2.681241 0,1.564058 -0.85185,2.681242 -2.31816,2.681242 -1.48026,0 -2.34608,-1.117184 -2.34608,-2.681242 z m 6.60535,1.494234 c 0,1.256832 0.9496,2.06679 2.47177,2.06679 1.53612,0 2.56952,-0.795994 2.56952,-2.010931 0,-0.977536 -0.53066,-1.522163 -1.70371,-1.815424 l -1.15907,-0.293261 c -0.74014,-0.181542 -1.10322,-0.544627 -1.10322,-1.061325 0,-0.726169 0.53066,-1.131148 1.48026,-1.131148 0.90772,0 1.45234,0.460838 1.48027,1.242867 h 0.93565 c -0.0419,-1.256832 -0.96358,-2.038861 -2.38799,-2.038861 -1.45233,0 -2.44384,0.754099 -2.44384,1.941107 0,0.921677 0.57256,1.536128 1.7456,1.829389 l 1.15908,0.293261 c 0.796,0.195507 1.07529,0.516697 1.07529,1.075289 0,0.72617 -0.61445,1.173043 -1.66181,1.173043 -0.94961,0 -1.53613,-0.488768 -1.53613,-1.270796 z"
         id="text1"
         style="font-size:13.9648px;line-height:1.25;font-family:satoshi;-inkscape-font-specification:satoshi;fill:#ffffff;stroke-width:0.277943;paint-order:stroke fill markers"
         transform="scale(1.0150137,0.98520838)"
         aria-label="Solve Labs" />
    </g>
  </g>
</svg>
