<?xml version="1.0" encoding="UTF-8" standalone="no"?>
<!-- Created with Inkscape (http://www.inkscape.org/) -->

<svg
   width="128"
   height="128"
   viewBox="0 0 33.866666 33.866667"
   version="1.1"
   id="svg1"
   inkscape:version="1.3 (0e150ed6c4, 2023-07-21)"
   sodipodi:docname="favicon.svg"
   inkscape:export-filename="DD_border.png"
   inkscape:export-xdpi="96"
   inkscape:export-ydpi="96"
   xmlns:inkscape="http://www.inkscape.org/namespaces/inkscape"
   xmlns:sodipodi="http://sodipodi.sourceforge.net/DTD/sodipodi-0.dtd"
   xmlns="http://www.w3.org/2000/svg"
   xmlns:svg="http://www.w3.org/2000/svg">
  <sodipodi:namedview
     id="namedview1"
     pagecolor="#ffffff"
     bordercolor="#eeeeee"
     borderopacity="1"
     inkscape:showpageshadow="0"
     inkscape:pageopacity="0"
     inkscape:pagecheckerboard="true"
     inkscape:deskcolor="#d1d1d1"
     inkscape:document-units="mm"
     inkscape:zoom="2.9255612"
     inkscape:cx="94.169965"
     inkscape:cy="85.624596"
     inkscape:window-width="1920"
     inkscape:window-height="1017"
     inkscape:window-x="1912"
     inkscape:window-y="-8"
     inkscape:window-maximized="1"
     inkscape:current-layer="g12"
     showgrid="false" />
  <defs
     id="defs1" />
  <g
     inkscape:label="Layer 1"
     inkscape:groupmode="layer"
     id="layer1">
    <g
       id="g12"
       transform="matrix(2.5181639,0,0,2.5188526,-164.41213,-154.424)"
       style="stroke-width:0.39706">
      <path
         d="m 65.294098,61.305666 v 9.707619 c 2.526122,-0.0079 5.053255,0.0158 7.578739,-0.01199 1.23757,-0.103177 2.202061,-1.316404 2.080142,-2.542373 v -1.291167 h -1.928083 c -0.0172,0.642627 0.03566,1.037733 -0.0287,1.674845 -0.191559,0.371565 -0.667367,0.189289 -1.002784,0.233054 h -4.771237 v -5.832365 c 1.823914,0.0055 3.648861,-0.01102 5.472132,0.0082 0.468537,0.114743 0.298905,0.666573 0.330586,1.019229 v 0.447542 h 1.928083 c -0.0301,-0.919572 0.159123,-1.685677 -0.469393,-2.4606 -0.506091,-0.71797 -1.405371,-1.022753 -2.256,-0.95204 z"
         style="opacity:1;fill:#ffffff;fill-opacity:1;stroke:#000000;stroke-width:0;stroke-linecap:square;stroke-dasharray:none;stroke-opacity:1;paint-order:fill markers stroke"
         id="path12"
         sodipodi:nodetypes="ccccccccccccccccc" />
      <path
         d="m 69.071356,64.974094 v 3.845776 h 1.92808 v -1.907898 c 1.823924,0.0053 3.648815,-0.01064 5.472133,0.0079 0.468485,0.114912 0.29893,0.666549 0.330587,1.019224 -0.0049,1.499104 0.01,2.999123 -0.0075,4.497652 -0.104699,0.437444 -0.620882,0.277012 -0.948174,0.307237 h -4.847057 v -1.475013 h -1.928079 v 3.412891 c 2.52612,-0.0079 5.05328,0.01605 7.57874,-0.01223 1.237585,-0.102842 2.201993,-1.316282 2.080142,-2.54212 -0.0078,-1.67806 0.0158,-3.357115 -0.01222,-5.034531 -0.100926,-1.251593 -1.318377,-2.242467 -2.561523,-2.118975 -2.361712,0 -4.723425,0 -7.085136,0 z"
         style="opacity:1;fill:#ffffff;fill-opacity:1;stroke:#000000;stroke-width:0;stroke-linecap:square;stroke-dasharray:none;stroke-opacity:1;paint-order:fill markers stroke"
         id="path11"
         sodipodi:nodetypes="ccccccccccccccccc" />
      <path
         id="rect11"
         style="opacity:1;fill:#ff9025;fill-opacity:1;stroke:none;stroke-width:0.079412;stroke-dasharray:none;stroke-opacity:1;paint-order:fill markers stroke"
         d="m 66.385396,71.39603 v 1.087082 h -1.09373 v 1.170747 h 1.09373 v 1.08708 H 67.5633 v -1.08708 h 1.093732 V 72.483112 H 67.5633 V 71.39603 Z" />
    </g>
  </g>
</svg>
