<?xml version="1.0" encoding="UTF-8" standalone="no"?>
<!-- Created with Inkscape (http://www.inkscape.org/) -->

<svg
   width="135mm"
   height="38.040001mm"
   viewBox="0 0 135 38.040001"
   version="1.1"
   id="svg1"
   inkscape:version="1.3 (0e150ed6c4, 2023-07-21)"
   sodipodi:docname="opensource_articles.svg"
   inkscape:export-filename="..\..\public\images\icons\contacts_social.svg"
   inkscape:export-xdpi="96"
   inkscape:export-ydpi="96"
   xmlns:inkscape="http://www.inkscape.org/namespaces/inkscape"
   xmlns:sodipodi="http://sodipodi.sourceforge.net/DTD/sodipodi-0.dtd"
   xmlns="http://www.w3.org/2000/svg"
   xmlns:svg="http://www.w3.org/2000/svg">
  <sodipodi:namedview
     id="namedview1"
     pagecolor="#505050"
     bordercolor="#eeeeee"
     borderopacity="1"
     inkscape:showpageshadow="0"
     inkscape:pageopacity="0"
     inkscape:pagecheckerboard="0"
     inkscape:deskcolor="#d1d1d1"
     inkscape:document-units="mm"
     inkscape:zoom="1.4627806"
     inkscape:cx="234.48493"
     inkscape:cy="206.79793"
     inkscape:window-width="1920"
     inkscape:window-height="1017"
     inkscape:window-x="1912"
     inkscape:window-y="55"
     inkscape:window-maximized="1"
     inkscape:current-layer="g4"
     showgrid="false" />
  <defs
     id="defs1" />
  <g
     inkscape:label="Layer 1"
     inkscape:groupmode="layer"
     id="layer1">
    <g
       id="g4"
       transform="translate(-163.74819,-24.075886)"
       inkscape:label="opensource">
      <path
         style="font-size:24.6944px;line-height:1.25;font-family:satoshi;-inkscape-font-specification:satoshi;fill:#ffffff;stroke-width:0.8;paint-order:stroke fill markers"
         d="m 180.87068,33.672355 c 0,-5.383379 -3.45722,-9.161622 -8.42079,-9.161622 -4.93888,0 -8.42079,3.802937 -8.42079,9.161622 0,5.358685 3.45721,9.136929 8.42079,9.136929 4.93888,0 8.42079,-3.778244 8.42079,-9.136929 z m -1.82739,0 c 0,4.395604 -2.69169,7.433015 -6.5934,7.433015 -3.90172,0 -6.56871,-3.012717 -6.56871,-7.433015 0,-4.420297 2.66699,-7.433014 6.56871,-7.433014 3.90171,0 6.5934,3.012717 6.5934,7.433014 z m 4.69192,14.051114 h 1.70391 v -7.507097 c 0.83961,1.728608 2.44475,2.592912 4.46969,2.592912 3.5313,0 5.53154,-2.716384 5.53154,-6.321767 0,-3.605382 -2.07433,-6.247683 -5.53154,-6.247683 -2.00025,0 -3.67947,0.888998 -4.51908,2.741078 l -0.17286,-2.420051 h -1.48166 z m 1.72861,-11.186563 c 0,-2.765773 1.53105,-4.741325 4.14865,-4.741325 2.59292,0 4.09928,1.975552 4.09928,4.741325 0,2.741078 -1.50636,4.741325 -4.09928,4.741325 -2.6176,0 -4.14865,-2.000247 -4.14865,-4.741325 z m 17.70587,6.272378 c 2.81516,0 4.66724,-1.358192 5.3093,-3.877021 h -1.62983 c -0.4445,1.580441 -1.70392,2.420051 -3.65477,2.420051 -2.56822,0 -4.09928,-1.679219 -4.22275,-4.593158 h 9.50735 v -0.83961 c 0,-3.383133 -2.1978,-5.679712 -5.43277,-5.679712 -3.40783,0 -5.7291,2.568217 -5.7291,6.297072 0,3.753549 2.34597,6.272378 5.85257,6.272378 z m -0.12347,-11.112481 c 2.24719,0 3.72885,1.531053 3.72885,3.827632 h -7.75404 c 0.29633,-2.345968 1.778,-3.827632 4.02519,-3.827632 z m 9.85306,10.816148 v -6.247684 c 0,-2.691689 1.38289,-4.469686 3.82764,-4.469686 1.97555,0 3.23496,0.987776 3.23496,3.778243 v 6.939127 h 1.70392 v -7.309543 c 0,-3.012717 -1.3582,-4.963574 -4.64255,-4.963574 -1.72861,0 -3.30905,0.864304 -4.09927,2.395357 l -0.24695,-2.07433 h -1.48166 v 11.95209 z m 11.48291,-13.088033 c 0,2.420052 1.45696,4.000493 4.22274,4.667242 l 2.98802,0.740832 c 1.90147,0.444499 2.79047,1.481664 2.79047,3.062106 0,2.024941 -1.65453,3.284355 -4.24744,3.284355 -2.42005,0 -4.04988,-1.210025 -4.14866,-3.062105 h -1.82738 c 0.22225,2.889244 2.54352,4.691936 5.97604,4.691936 3.65477,0 6.02543,-1.950858 6.02543,-5.012964 0,-2.395357 -1.43227,-3.975798 -4.19804,-4.642547 l -3.03742,-0.740832 c -1.85208,-0.469194 -2.76577,-1.45697 -2.76577,-3.012717 0,-2.000246 1.62983,-3.284355 4.12397,-3.284355 2.22249,0 3.58068,1.135942 3.77824,3.136189 h 1.80269 c -0.27164,-2.963328 -2.37066,-4.741325 -5.55624,-4.741325 -3.55599,0 -5.92665,1.950857 -5.92665,4.914185 z m 13.75477,7.111988 c 0,3.630077 2.56822,6.272378 6.07482,6.272378 3.5066,0 6.07482,-2.642301 6.07482,-6.272378 0,-3.654771 -2.56822,-6.297072 -6.07482,-6.297072 -3.5066,0 -6.07482,2.642301 -6.07482,6.297072 z m 1.72861,-0.02469 c 0,-2.765773 1.77799,-4.741325 4.34621,-4.741325 2.54352,0 4.34621,1.975552 4.34621,4.741325 0,2.815161 -1.80269,4.766019 -4.34621,4.766019 -2.56822,0 -4.34621,-1.950858 -4.34621,-4.766019 z m 21.23723,-5.951351 v 6.346461 c 0,2.839856 -1.3582,4.370909 -3.65477,4.370909 -1.90147,0 -3.16089,-1.012471 -3.16089,-3.852327 v -6.889737 h -1.72861 v 7.433014 c 0,2.913939 1.53106,4.840103 4.34622,4.840103 1.87677,0 3.5313,-0.938388 4.19805,-2.321274 l 0.22225,2.024941 h 1.48166 v -11.95209 z m 11.50757,-0.148166 c -0.4198,-0.09878 -0.74083,-0.123472 -1.11124,-0.123472 -1.67922,0 -2.93864,0.839609 -3.40783,2.123718 l -0.12347,-1.85208 h -1.60514 v 11.95209 h 1.70391 v -6.815655 c 0,-2.271885 1.40759,-3.753549 3.60539,-3.753549 h 0.93838 z m 0.96309,6.148905 c 0,3.753549 2.29658,6.247684 5.67971,6.247684 2.71638,0 4.8401,-1.605136 5.40807,-4.049882 h -1.7286 c -0.4692,1.531053 -1.90147,2.518829 -3.67947,2.518829 -2.42005,0 -4.00049,-1.901469 -4.00049,-4.741325 0,-2.938634 1.70391,-4.790714 4.12396,-4.790714 1.65453,0 3.0868,0.913693 3.5313,2.568218 h 1.70392 c -0.4692,-2.46944 -2.49414,-4.074576 -5.25991,-4.074576 -3.48191,0 -5.77849,2.568217 -5.77849,6.321766 z m 18.69367,6.247684 c 2.81517,0 4.66725,-1.358192 5.3093,-3.877021 h -1.62983 c -0.4445,1.580441 -1.70391,2.420051 -3.65477,2.420051 -2.56822,0 -4.09927,-1.679219 -4.22274,-4.593158 h 9.50734 v -0.83961 c 0,-3.383133 -2.1978,-5.679712 -5.43277,-5.679712 -3.40783,0 -5.7291,2.568217 -5.7291,6.297072 0,3.753549 2.34597,6.272378 5.85257,6.272378 z m -0.12347,-11.112481 c 2.24719,0 3.72886,1.531053 3.72886,3.827632 h -7.75405 c 0.29634,-2.345968 1.778,-3.827632 4.02519,-3.827632 z"
         id="text1-0"
         aria-label="OpenSource" />
      <path
         style="font-size:24.6944px;line-height:1.25;font-family:satoshi;-inkscape-font-specification:satoshi;fill:#ffffff;stroke-width:0.8;paint-order:stroke fill markers"
         d="m 189.217,61.866009 1.72861,-4.691936 h 8.14915 l 1.72861,4.691936 h 1.85208 l -6.56871,-17.681191 h -2.1978 l -6.49463,17.681191 z m 5.55624,-15.187057 c 0.0988,-0.246944 0.19756,-0.567971 0.22225,-0.716137 0.0247,0.17286 0.14817,0.469193 0.22225,0.716137 l 3.30905,8.939373 h -7.0379 z m 16.24893,3.0868 c -0.41981,-0.09878 -0.74083,-0.123472 -1.11125,-0.123472 -1.67922,0 -2.93863,0.83961 -3.40783,2.123719 l -0.12347,-1.85208 h -1.60514 v 11.95209 h 1.70392 v -6.815655 c 0,-2.271885 1.40758,-3.753549 3.60538,-3.753549 h 0.93839 z m 5.50684,12.100257 V 51.346194 h 2.39536 v -1.432275 h -2.39536 v -3.778244 h -1.67922 v 3.778244 h -2.39535 v 1.432275 h 2.39535 v 10.519815 z m 5.45747,-15.236446 c 0.69145,0 1.28411,-0.567971 1.28411,-1.259414 0,-0.691443 -0.59266,-1.284109 -1.28411,-1.284109 -0.69144,0 -1.25941,0.592666 -1.25941,1.284109 0,0.691443 0.56797,1.259414 1.25941,1.259414 z m -0.83961,15.236446 h 1.70392 v -11.95209 h -1.70392 z m 4.42029,-5.951351 c 0,3.753549 2.29658,6.247684 5.67971,6.247684 2.71638,0 4.8401,-1.605136 5.40807,-4.049882 h -1.72861 c -0.46919,1.531053 -1.90146,2.518829 -3.67946,2.518829 -2.42005,0 -4.00049,-1.901469 -4.00049,-4.741325 0,-2.938634 1.70391,-4.790714 4.12396,-4.790714 1.65453,0 3.0868,0.913693 3.5313,2.568218 h 1.70391 c -0.46919,-2.46944 -2.49413,-4.074576 -5.2599,-4.074576 -3.48191,0 -5.77849,2.568217 -5.77849,6.321766 z m 15.4587,5.951351 V 43.863791 h -1.70391 v 18.002218 z m 8.64304,0.296333 c 2.81516,0 4.66724,-1.358192 5.30929,-3.877021 h -1.62983 c -0.4445,1.580441 -1.70391,2.420051 -3.65477,2.420051 -2.56822,0 -4.09927,-1.679219 -4.22274,-4.593159 h 9.50734 v -0.839609 c 0,-3.383133 -2.1978,-5.679712 -5.43276,-5.679712 -3.40783,0 -5.72911,2.568217 -5.72911,6.297072 0,3.753549 2.34597,6.272378 5.85258,6.272378 z m -0.12347,-11.112481 c 2.24719,0 3.72885,1.531053 3.72885,3.827632 h -7.75404 c 0.29633,-2.345968 1.778,-3.827632 4.02519,-3.827632 z m 7.13668,7.457709 c 0,2.222496 1.67922,3.654772 4.37091,3.654772 2.71638,0 4.54377,-1.407581 4.54377,-3.555994 0,-1.728608 -0.93839,-2.69169 -3.01272,-3.210272 l -2.04964,-0.518583 c -1.3088,-0.321027 -1.95085,-0.963081 -1.95085,-1.876774 0,-1.284109 0.93838,-2.000247 2.6176,-2.000247 1.60514,0 2.56822,0.814916 2.61761,2.197802 h 1.65452 c -0.0741,-2.222496 -1.70391,-3.605382 -4.22274,-3.605382 -2.56822,0 -4.32152,1.333497 -4.32152,3.432521 0,1.629831 1.01247,2.716384 3.0868,3.234967 l 2.04964,0.518582 c 1.40758,0.345722 1.90146,0.913693 1.90146,1.901469 0,1.284109 -1.08655,2.07433 -2.93863,2.07433 -1.67922,0 -2.71638,-0.864304 -2.71638,-2.247191 z"
         id="text1-9-8"
         aria-label="Articles" />
      <g
         id="g2"
         transform="matrix(2.4642246,0,0,2.4648981,-16.380239,-173.23356)"
         style="stroke-width:1.0219">
        <path
           id="rect11-9"
           style="opacity:1;fill:#ff7200;fill-opacity:1;stroke:none;stroke-width:0.0811496;stroke-dasharray:none;stroke-opacity:1;paint-order:fill markers stroke"
           d="m 75.361204,88.560487 v 2.24894 h -2.26364 v 2.42203 h 2.26364 v 2.248939 h 2.437851 v -2.248939 h 2.263643 v -2.42203 h -2.263643 v -2.24894 z" />
      </g>
    </g>
  </g>
</svg>
