<?xml version="1.0" encoding="UTF-8" standalone="no"?>
<!-- Created with Inkscape (http://www.inkscape.org/) -->

<svg
   width="130.16299mm"
   height="38.040001mm"
   viewBox="0 0 130.16299 38.040001"
   version="1.1"
   id="svg1"
   inkscape:version="1.3 (0e150ed6c4, 2023-07-21)"
   sodipodi:docname="solutions_services.svg"
   inkscape:export-filename="..\..\public\images\icons\opensource_articles.svg"
   inkscape:export-xdpi="96"
   inkscape:export-ydpi="96"
   xmlns:inkscape="http://www.inkscape.org/namespaces/inkscape"
   xmlns:sodipodi="http://sodipodi.sourceforge.net/DTD/sodipodi-0.dtd"
   xmlns="http://www.w3.org/2000/svg"
   xmlns:svg="http://www.w3.org/2000/svg">
  <sodipodi:namedview
     id="namedview1"
     pagecolor="#505050"
     bordercolor="#eeeeee"
     borderopacity="1"
     inkscape:showpageshadow="0"
     inkscape:pageopacity="0"
     inkscape:pagecheckerboard="0"
     inkscape:deskcolor="#d1d1d1"
     inkscape:document-units="mm"
     inkscape:zoom="1.4627806"
     inkscape:cx="235.16856"
     inkscape:cy="223.20504"
     inkscape:window-width="1920"
     inkscape:window-height="1017"
     inkscape:window-x="1912"
     inkscape:window-y="55"
     inkscape:window-maximized="1"
     inkscape:current-layer="g3" />
  <defs
     id="defs1" />
  <g
     inkscape:label="Layer 1"
     inkscape:groupmode="layer"
     id="layer1">
    <g
       id="g3"
       transform="translate(-176.04821,-24.075886)">
      <path
         style="font-size:24.6944px;line-height:1.25;font-family:Satoshi;-inkscape-font-specification:Satoshi;fill:#ffffff;stroke-width:0.8;paint-order:stroke fill markers"
         d="m 176.35343,29.358772 c 0,2.420051 1.45697,4.000493 4.22274,4.667241 l 2.98802,0.740832 c 1.90147,0.4445 2.79047,1.481664 2.79047,3.062106 0,2.024941 -1.65452,3.284355 -4.24743,3.284355 -2.42006,0 -4.04989,-1.210025 -4.14866,-3.062105 h -1.82739 c 0.22225,2.889245 2.54352,4.691936 5.97605,4.691936 3.65477,0 6.02543,-1.950858 6.02543,-5.012964 0,-2.395356 -1.43228,-3.975798 -4.19805,-4.642547 l -3.03741,-0.740832 c -1.85208,-0.469193 -2.76577,-1.45697 -2.76577,-3.012717 0,-2.000246 1.62983,-3.284355 4.12396,-3.284355 2.2225,0 3.58069,1.135942 3.77824,3.136189 h 1.8027 c -0.27164,-2.963328 -2.37067,-4.741325 -5.55624,-4.741325 -3.556,0 -5.92666,1.950858 -5.92666,4.914186 z m 13.75477,7.111987 c 0,3.630077 2.56822,6.272378 6.07483,6.272378 3.5066,0 6.07482,-2.642301 6.07482,-6.272378 0,-3.654771 -2.56822,-6.297072 -6.07482,-6.297072 -3.50661,0 -6.07483,2.642301 -6.07483,6.297072 z m 1.72861,-0.02469 c 0,-2.765773 1.778,-4.741325 4.34622,-4.741325 2.54352,0 4.34621,1.975552 4.34621,4.741325 0,2.815161 -1.80269,4.766019 -4.34621,4.766019 -2.56822,0 -4.34622,-1.950858 -4.34622,-4.766019 z m 14.91544,6.000739 V 24.444586 h -1.70391 v 18.002218 z m 12.02617,-11.95209 v 6.346461 c 0,2.839856 -1.35819,4.370909 -3.65477,4.370909 -1.90147,0 -3.16088,-1.01247 -3.16088,-3.852327 V 30.47002 h -1.72861 v 7.433014 c 0,2.91394 1.53105,4.840103 4.34621,4.840103 1.87678,0 3.5313,-0.938387 4.19805,-2.321274 l 0.22225,2.024941 h 1.48166 v -11.95209 z m 8.00097,11.95209 V 31.926989 h 2.39536 v -1.432275 h -2.39536 v -3.778243 h -1.67922 v 3.778243 h -2.39535 v 1.432275 h 2.39535 v 10.519815 z m 5.45748,-15.236445 c 0.69144,0 1.2841,-0.567971 1.2841,-1.259415 0,-0.691443 -0.59266,-1.284109 -1.2841,-1.284109 -0.69145,0 -1.25942,0.592666 -1.25942,1.284109 0,0.691444 0.56797,1.259415 1.25942,1.259415 z m -0.83961,15.236445 h 1.70391 v -11.95209 h -1.70391 z m 4.42028,-5.976045 c 0,3.630077 2.56822,6.272378 6.07482,6.272378 3.50661,0 6.07482,-2.642301 6.07482,-6.272378 0,-3.654771 -2.56821,-6.297072 -6.07482,-6.297072 -3.5066,0 -6.07482,2.642301 -6.07482,6.297072 z m 1.72861,-0.02469 c 0,-2.765773 1.77799,-4.741325 4.34621,-4.741325 2.54352,0 4.34621,1.975552 4.34621,4.741325 0,2.815161 -1.80269,4.766019 -4.34621,4.766019 -2.56822,0 -4.34621,-1.950858 -4.34621,-4.766019 z m 14.84135,6.000739 v -6.247683 c 0,-2.69169 1.38288,-4.469687 3.82763,-4.469687 1.97555,0 3.23497,0.987776 3.23497,3.778243 v 6.939127 h 1.70391 v -7.309543 c 0,-3.012716 -1.35819,-4.963574 -4.64255,-4.963574 -1.72861,0 -3.30905,0.864304 -4.09927,2.395357 l -0.24694,-2.07433 h -1.48167 v 11.95209 z m 11.01369,-3.358438 c 0,2.222496 1.67922,3.654771 4.37091,3.654771 2.71639,0 4.54377,-1.407581 4.54377,-3.555994 0,-1.728608 -0.93839,-2.69169 -3.01272,-3.210272 l -2.04963,-0.518582 c -1.3088,-0.321028 -1.95086,-0.963082 -1.95086,-1.876775 0,-1.284109 0.93839,-2.000246 2.61761,-2.000246 1.60513,0 2.56822,0.814915 2.6176,2.197801 h 1.65453 c -0.0741,-2.222496 -1.70391,-3.605382 -4.22274,-3.605382 -2.56822,0 -4.32152,1.333497 -4.32152,3.432522 0,1.62983 1.01247,2.716384 3.0868,3.234966 l 2.04963,0.518582 c 1.40758,0.345722 1.90147,0.913693 1.90147,1.901469 0,1.284109 -1.08655,2.07433 -2.93863,2.07433 -1.67922,0 -2.71639,-0.864304 -2.71639,-2.24719 z"
         id="text1"
         aria-label="Solutions" />
      <path
         style="font-size:24.6944px;line-height:1.25;font-family:Satoshi;-inkscape-font-specification:Satoshi;fill:#ffffff;stroke-width:0.8;paint-order:stroke fill markers"
         d="m 200.45478,48.48859 c 0,2.420051 1.45697,4.000493 4.22274,4.667241 l 2.98802,0.740832 c 1.90147,0.4445 2.79047,1.481664 2.79047,3.062106 0,2.024941 -1.65452,3.284355 -4.24744,3.284355 -2.42005,0 -4.04988,-1.210025 -4.14866,-3.062105 h -1.82738 c 0.22225,2.889245 2.54352,4.691936 5.97604,4.691936 3.65478,0 6.02544,-1.950858 6.02544,-5.012964 0,-2.395356 -1.43228,-3.975798 -4.19805,-4.642547 l -3.03741,-0.740832 c -1.85208,-0.469194 -2.76577,-1.45697 -2.76577,-3.012717 0,-2.000246 1.62983,-3.284355 4.12396,-3.284355 2.2225,0 3.58069,1.135942 3.77824,3.136189 h 1.8027 c -0.27164,-2.963328 -2.37067,-4.741325 -5.55625,-4.741325 -3.55599,0 -5.92665,1.950857 -5.92665,4.914186 z m 19.60735,13.384365 c 2.81516,0 4.66724,-1.358192 5.30929,-3.877021 h -1.62983 c -0.4445,1.580442 -1.70391,2.420051 -3.65477,2.420051 -2.56822,0 -4.09927,-1.679219 -4.22274,-4.593158 h 9.50734 v -0.83961 c 0,-3.383133 -2.1978,-5.679712 -5.43277,-5.679712 -3.40782,0 -5.7291,2.568217 -5.7291,6.297072 0,3.753549 2.34597,6.272378 5.85258,6.272378 z m -0.12348,-11.112481 c 2.24719,0 3.72886,1.531053 3.72886,3.827633 h -7.75404 c 0.29633,-2.345968 1.77799,-3.827633 4.02518,-3.827633 z m 14.39684,-1.284108 c -0.41981,-0.09878 -0.74083,-0.123472 -1.11125,-0.123472 -1.67922,0 -2.93863,0.839609 -3.40783,2.123718 l -0.12347,-1.85208 h -1.60514 v 11.95209 h 1.70392 v -6.815655 c 0,-2.271884 1.40758,-3.753549 3.60538,-3.753549 h 0.93839 z m 5.97601,12.100256 h 1.70392 l 4.96357,-11.95209 h -1.7533 l -3.13619,7.704653 c -0.34572,0.864304 -0.66675,1.654525 -0.889,2.46944 -0.22225,-0.790221 -0.54328,-1.605136 -0.8643,-2.46944 l -3.0868,-7.704653 h -1.82739 z m 9.50735,-15.236445 c 0.69144,0 1.28411,-0.567971 1.28411,-1.259415 0,-0.691443 -0.59267,-1.284109 -1.28411,-1.284109 -0.69145,0 -1.25942,0.592666 -1.25942,1.284109 0,0.691444 0.56797,1.259415 1.25942,1.259415 z m -0.83961,15.236445 h 1.70391 v -11.95209 h -1.70391 z m 4.42028,-5.951351 c 0,3.753549 2.29658,6.247684 5.67971,6.247684 2.71639,0 4.8401,-1.605136 5.40808,-4.049882 h -1.72861 c -0.4692,1.531053 -1.90147,2.518829 -3.67947,2.518829 -2.42005,0 -4.00049,-1.901469 -4.00049,-4.741325 0,-2.938634 1.70391,-4.790714 4.12396,-4.790714 1.65453,0 3.0868,0.913693 3.5313,2.568218 h 1.70392 c -0.4692,-2.46944 -2.49414,-4.074576 -5.25991,-4.074576 -3.48191,0 -5.77849,2.568217 -5.77849,6.321766 z m 18.69367,6.247684 c 2.81516,0 4.66724,-1.358192 5.3093,-3.877021 h -1.62983 c -0.4445,1.580442 -1.70392,2.420051 -3.65477,2.420051 -2.56822,0 -4.09928,-1.679219 -4.22275,-4.593158 h 9.50735 v -0.83961 c 0,-3.383133 -2.1978,-5.679712 -5.43277,-5.679712 -3.40783,0 -5.7291,2.568217 -5.7291,6.297072 0,3.753549 2.34597,6.272378 5.85257,6.272378 z m -0.12347,-11.112481 c 2.24719,0 3.72885,1.531053 3.72885,3.827633 h -7.75404 c 0.29633,-2.345968 1.778,-3.827633 4.02519,-3.827633 z m 7.13668,7.45771 c 0,2.222496 1.67922,3.654771 4.37091,3.654771 2.71638,0 4.54377,-1.407581 4.54377,-3.555994 0,-1.728608 -0.93839,-2.69169 -3.01272,-3.210272 l -2.04963,-0.518582 c -1.30881,-0.321028 -1.95086,-0.963082 -1.95086,-1.876775 0,-1.284109 0.93839,-2.000246 2.61761,-2.000246 1.60513,0 2.56821,0.814915 2.6176,2.197801 h 1.65453 c -0.0741,-2.222496 -1.70392,-3.605382 -4.22275,-3.605382 -2.56821,0 -4.32152,1.333497 -4.32152,3.432522 0,1.62983 1.01247,2.716384 3.0868,3.234966 l 2.04964,0.518582 c 1.40758,0.345722 1.90147,0.913693 1.90147,1.901469 0,1.284109 -1.08656,2.07433 -2.93864,2.07433 -1.67921,0 -2.71638,-0.864304 -2.71638,-2.24719 z"
         id="text1-9"
         aria-label="Services" />
      <g
         id="g1"
         transform="matrix(2.4642246,0,0,2.4648981,-4.0806043,-173.23356)"
         style="stroke-width:1.0219">
        <path
           id="rect11"
           style="opacity:1;fill:#ff7200;fill-opacity:1;stroke:none;stroke-width:0.0811496;stroke-dasharray:none;stroke-opacity:1;paint-order:fill markers stroke"
           d="m 75.361204,88.560487 v 2.24894 h -2.26364 v 2.42203 h 2.26364 v 2.248939 h 2.437851 v -2.248939 h 2.263643 v -2.42203 h -2.263643 v -2.24894 z" />
      </g>
    </g>
  </g>
</svg>
